# Created by Kenney (www.kenney.nl)

mtllib sword_tip.mtl

g mergedBlocks

v 0.0019 3.378545E-15 1.068429E-15
v 0.00095 3.14212E-15 -0.000476
v 0.00095 3.378545E-15 0.000476
v 0 3.855007E-15 0.0009519999
v 0 2.905693E-15 -0.0009519999
v -0.00095 3.616776E-15 0.000476
v -0.00095 3.14212E-15 -0.000476
v -0.0019 3.378545E-15 1.068429E-15
v -0.00095 0.0075 0.000476
v -0.0019 0.0075 -7.024198E-15
v 0 0.01 -9.327095E-15
v 0.0019 0.0075 -7.024198E-15
v 0.00095 0.0075 0.000476
v 0.00095 0.0075 -0.000476
v -0.00095 0.0075 -0.000476
v 0 0.0075 -0.0009519999
v 0 0.0075 0.0009519999

vn 0 -0.01 0
vn -0.004240635 0.003222883 0.008463453
vn -0.004479663 0 0.008940504
vn 0.004240635 0.003222883 0.008463453
vn 0.004479663 0 0.008940504
vn 0.004240635 0.003222883 -0.008463453
vn 0.004479663 0 -0.008940504
vn -0.004240635 0.003222883 -0.008463453
vn -0.004479663 0 -0.008940504

vt -0.19 -1.068429E-13
vt -0.095 0.0476
vt -0.095 -0.0476
vt 0 -0.09519999
vt 0 0.09519999
vt 0.095 -0.0476
vt 0.095 0.0476
vt 0.19 -1.068429E-13
vt -0.095 0.75
vt -0.19 0.75
vt 0 1
vt -0.19 3.378545E-13
vt -0.095 3.616776E-13
vt 0.19 0.75
vt 0.095 0.75
vt 0.19 3.378545E-13
vt 0.095 3.378545E-13
vt -0.095 3.14212E-13
vt 0.095 3.14212E-13
vt 0 0.75
vt 0 2.905694E-13
vt 0 3.855007E-13

usemtl metalLight

f 3/3/1 2/2/1 1/1/1
f 2/2/1 3/3/1 4/4/1
f 2/2/1 4/4/1 5/5/1
f 5/5/1 4/4/1 6/6/1
f 5/5/1 6/6/1 7/7/1
f 7/7/1 6/6/1 8/8/1
f 11/11/2 10/10/2 9/9/2
f 6/13/3 10/10/3 8/12/3
f 10/10/3 6/13/3 9/9/3
f 11/11/4 13/15/4 12/14/4
f 12/14/5 3/17/5 1/16/5
f 3/17/5 12/14/5 13/15/5
f 11/11/6 12/10/6 14/9/6
f 14/9/7 1/12/7 2/18/7
f 1/12/7 14/9/7 12/10/7
f 11/11/8 15/15/8 10/14/8
f 8/16/9 15/15/9 7/19/9
f 15/15/9 8/16/9 10/14/9

usemtl metal

f 11/11/6 14/9/6 16/20/6
f 16/20/7 2/18/7 5/21/7
f 2/18/7 16/20/7 14/9/7
f 7/19/9 16/20/9 5/21/9
f 16/20/9 7/19/9 15/15/9
f 11/11/8 16/20/8 15/15/8
f 4/22/3 9/9/3 6/13/3
f 9/9/3 4/22/3 17/20/3
f 11/11/2 9/9/2 17/20/2
f 11/11/4 17/20/4 13/15/4
f 13/15/5 4/22/5 3/17/5
f 4/22/5 13/15/5 17/20/5

