# Created by Kenney (www.kenney.nl)

mtllib sword_seg.mtl

g mergedBlocks

v 0 2.905693E-15 -0.0009519999
v 0.00095 3.14212E-15 -0.000476
v 0 0.01 -0.0009519999
v 0.00095 0.01 -0.000476
v -0.00095 3.14212E-15 -0.000476
v -0.00095 0.01 -0.000476
v 0.00095 0.01 0.000476
v 0 0.01 0.0009519999
v -0.00095 0.01 0.000476
v 0.00095 3.616776E-15 0.000476
v 0 3.855007E-15 0.0009519999
v -0.00095 3.616776E-15 0.000476
v 0.0019 0.01 -8.273105E-15
v 0.0019 3.378545E-15 1.068429E-15
v -0.0019 3.378545E-15 1.068429E-15
v -0.0019 0.01 -8.273105E-15

vn 0.004479663 0 -0.008940504
vn -0.004479663 0 -0.008940504
vn 0 0.01 0
vn 0.004479663 0 0.008940504
vn -0.004479663 0 0.008940504
vn 0 -0.01 0

vt 0 2.905694E-13
vt -0.095 3.14212E-13
vt 0 1
vt -0.095 1
vt 0.095 3.14212E-13
vt 0.095 1
vt -0.095 -0.0476
vt -0.095 0.0476
vt 0 -0.09519999
vt 0 0.09519999
vt 0.095 -0.0476
vt 0.095 0.0476
vt 0.095 3.616776E-13
vt 0 3.855007E-13
vt -0.095 3.616776E-13
vt -0.19 -8.273105E-13
vt 0.19 3.378545E-13
vt 0.19 1
vt -0.19 3.378545E-13
vt -0.19 1
vt -0.19 -1.068429E-13
vt 0.19 -1.068429E-13
vt 0.19 -8.273105E-13

usemtl metal

f 3/3/1 2/2/1 1/1/1
f 2/2/1 3/3/1 4/4/1
f 5/5/2 3/3/2 1/1/2
f 3/3/2 5/5/2 6/6/2
f 3/9/3 7/8/3 4/7/3
f 7/8/3 3/9/3 8/10/3
f 8/10/3 3/9/3 6/11/3
f 8/10/3 6/11/3 9/12/3
f 7/6/4 11/14/4 10/13/4
f 11/14/4 7/6/4 8/3/4
f 11/14/5 9/4/5 12/15/5
f 9/4/5 11/14/5 8/3/5

usemtl metalLight

f 7/8/3 13/16/3 4/7/3
f 13/18/4 10/13/4 14/17/4
f 10/13/4 13/18/4 7/6/4
f 12/15/5 16/20/5 15/19/5
f 16/20/5 12/15/5 9/4/5
f 10/7/6 2/8/6 14/21/6
f 2/8/6 10/7/6 11/9/6
f 2/8/6 11/9/6 1/10/6
f 1/10/6 11/9/6 12/11/6
f 1/10/6 12/11/6 5/12/6
f 5/12/6 12/11/6 15/22/6
f 4/4/1 14/19/1 2/2/1
f 14/19/1 4/4/1 13/20/1
f 15/17/2 6/6/2 5/5/2
f 6/6/2 15/17/2 16/18/2
f 16/23/3 9/12/3 6/11/3

